<mxfile host="app.diagrams.net" modified="2024-05-15T02:12:45.748Z" agent="Mozilla/5.0 (Macintosh; Intel Mac OS X 10_15_7) AppleWebKit/537.36 (KHTML, like Gecko) Chrome/123.0.0.0 Safari/537.36" etag="uazmMPn_25VRgn8ycaHc" version="23.1.7" type="github">
  <diagram name="第 1 页" id="MkS6zHdORr5V2mtr6qez">
    <mxGraphModel dx="562" dy="377" grid="0" gridSize="10" guides="1" tooltips="1" connect="1" arrows="1" fold="1" page="1" pageScale="1" pageWidth="827" pageHeight="1169" math="0" shadow="0">
      <root>
        <mxCell id="0" />
        <mxCell id="1" parent="0" />
        <mxCell id="aILLjWVmcoHMxmn1RiVL-9" value="" style="rounded=0;whiteSpace=wrap;html=1;dashed=1;strokeWidth=1;perimeterSpacing=0;dashPattern=8 8;" parent="1" vertex="1">
          <mxGeometry x="97" y="369" width="426" height="97" as="geometry" />
        </mxCell>
        <mxCell id="aILLjWVmcoHMxmn1RiVL-1" value="CPU 1" style="rounded=1;whiteSpace=wrap;html=1;" parent="1" vertex="1">
          <mxGeometry x="110" y="418" width="80" height="40" as="geometry" />
        </mxCell>
        <mxCell id="aILLjWVmcoHMxmn1RiVL-2" value="CPU 2" style="rounded=1;whiteSpace=wrap;html=1;" parent="1" vertex="1">
          <mxGeometry x="230" y="418" width="80" height="40" as="geometry" />
        </mxCell>
        <mxCell id="aILLjWVmcoHMxmn1RiVL-3" value="CPU n" style="rounded=1;whiteSpace=wrap;html=1;" parent="1" vertex="1">
          <mxGeometry x="430" y="418" width="80" height="40" as="geometry" />
        </mxCell>
        <mxCell id="aILLjWVmcoHMxmn1RiVL-5" value="" style="endArrow=none;dashed=1;html=1;dashPattern=1 3;strokeWidth=2;rounded=0;" parent="1" edge="1">
          <mxGeometry width="50" height="50" relative="1" as="geometry">
            <mxPoint x="322" y="437.71000000000004" as="sourcePoint" />
            <mxPoint x="422" y="437.71000000000004" as="targetPoint" />
          </mxGeometry>
        </mxCell>
        <mxCell id="aILLjWVmcoHMxmn1RiVL-6" value="固件" style="rounded=0;whiteSpace=wrap;html=1;" parent="1" vertex="1">
          <mxGeometry x="110" y="383" width="80" height="30" as="geometry" />
        </mxCell>
        <mxCell id="aILLjWVmcoHMxmn1RiVL-7" value="固件" style="rounded=0;whiteSpace=wrap;html=1;" parent="1" vertex="1">
          <mxGeometry x="230" y="383" width="80" height="30" as="geometry" />
        </mxCell>
        <mxCell id="aILLjWVmcoHMxmn1RiVL-8" value="固件" style="rounded=0;whiteSpace=wrap;html=1;" parent="1" vertex="1">
          <mxGeometry x="430" y="383" width="80" height="30" as="geometry" />
        </mxCell>
        <mxCell id="aILLjWVmcoHMxmn1RiVL-15" style="edgeStyle=orthogonalEdgeStyle;rounded=0;orthogonalLoop=1;jettySize=auto;html=1;exitX=0.75;exitY=1;exitDx=0;exitDy=0;" parent="1" source="aILLjWVmcoHMxmn1RiVL-10" target="aILLjWVmcoHMxmn1RiVL-8" edge="1">
          <mxGeometry relative="1" as="geometry">
            <Array as="points">
              <mxPoint x="470" y="340" />
            </Array>
          </mxGeometry>
        </mxCell>
        <mxCell id="aILLjWVmcoHMxmn1RiVL-20" value="超调用" style="edgeLabel;html=1;align=center;verticalAlign=middle;resizable=0;points=[];" parent="aILLjWVmcoHMxmn1RiVL-15" vertex="1" connectable="0">
          <mxGeometry x="0.4756" relative="1" as="geometry">
            <mxPoint x="-1" y="-3" as="offset" />
          </mxGeometry>
        </mxCell>
        <mxCell id="aILLjWVmcoHMxmn1RiVL-16" style="edgeStyle=orthogonalEdgeStyle;rounded=0;orthogonalLoop=1;jettySize=auto;html=1;exitX=0.5;exitY=1;exitDx=0;exitDy=0;entryX=0.5;entryY=0;entryDx=0;entryDy=0;" parent="1" source="aILLjWVmcoHMxmn1RiVL-10" target="aILLjWVmcoHMxmn1RiVL-7" edge="1">
          <mxGeometry relative="1" as="geometry">
            <Array as="points">
              <mxPoint x="270" y="340" />
            </Array>
          </mxGeometry>
        </mxCell>
        <mxCell id="aILLjWVmcoHMxmn1RiVL-19" value="超调用" style="edgeLabel;html=1;align=center;verticalAlign=middle;resizable=0;points=[];" parent="aILLjWVmcoHMxmn1RiVL-16" vertex="1" connectable="0">
          <mxGeometry x="0.2827" y="-1" relative="1" as="geometry">
            <mxPoint y="1" as="offset" />
          </mxGeometry>
        </mxCell>
        <mxCell id="aILLjWVmcoHMxmn1RiVL-17" style="edgeStyle=orthogonalEdgeStyle;rounded=0;orthogonalLoop=1;jettySize=auto;html=1;exitX=0.25;exitY=1;exitDx=0;exitDy=0;" parent="1" source="aILLjWVmcoHMxmn1RiVL-10" target="aILLjWVmcoHMxmn1RiVL-6" edge="1">
          <mxGeometry relative="1" as="geometry">
            <Array as="points">
              <mxPoint x="150" y="340" />
            </Array>
          </mxGeometry>
        </mxCell>
        <mxCell id="aILLjWVmcoHMxmn1RiVL-18" value="超调用" style="edgeLabel;html=1;align=center;verticalAlign=middle;resizable=0;points=[];" parent="aILLjWVmcoHMxmn1RiVL-17" vertex="1" connectable="0">
          <mxGeometry x="0.4061" y="-1" relative="1" as="geometry">
            <mxPoint as="offset" />
          </mxGeometry>
        </mxCell>
        <mxCell id="aILLjWVmcoHMxmn1RiVL-10" value="内核驱动" style="rounded=1;whiteSpace=wrap;html=1;" parent="1" vertex="1">
          <mxGeometry x="100" y="310" width="420" height="30" as="geometry" />
        </mxCell>
        <mxCell id="aILLjWVmcoHMxmn1RiVL-12" style="edgeStyle=orthogonalEdgeStyle;rounded=0;orthogonalLoop=1;jettySize=auto;html=1;exitX=0.5;exitY=1;exitDx=0;exitDy=0;entryX=0.5;entryY=0;entryDx=0;entryDy=0;" parent="1" source="aILLjWVmcoHMxmn1RiVL-11" target="aILLjWVmcoHMxmn1RiVL-10" edge="1">
          <mxGeometry relative="1" as="geometry" />
        </mxCell>
        <mxCell id="aILLjWVmcoHMxmn1RiVL-13" value="ioctl调用" style="edgeLabel;html=1;align=center;verticalAlign=middle;resizable=0;points=[];" parent="aILLjWVmcoHMxmn1RiVL-12" vertex="1" connectable="0">
          <mxGeometry x="-0.3357" y="1" relative="1" as="geometry">
            <mxPoint x="-1" y="1" as="offset" />
          </mxGeometry>
        </mxCell>
        <mxCell id="aILLjWVmcoHMxmn1RiVL-11" value="用户态工具" style="rounded=1;whiteSpace=wrap;html=1;" parent="1" vertex="1">
          <mxGeometry x="250" y="246" width="120" height="30" as="geometry" />
        </mxCell>
        <mxCell id="aILLjWVmcoHMxmn1RiVL-25" style="edgeStyle=orthogonalEdgeStyle;rounded=0;orthogonalLoop=1;jettySize=auto;html=1;exitX=0.5;exitY=1;exitDx=0;exitDy=0;entryX=0.5;entryY=0;entryDx=0;entryDy=0;" parent="1" source="aILLjWVmcoHMxmn1RiVL-24" target="aILLjWVmcoHMxmn1RiVL-11" edge="1">
          <mxGeometry relative="1" as="geometry" />
        </mxCell>
        <mxCell id="aILLjWVmcoHMxmn1RiVL-26" value="终端指令" style="edgeLabel;html=1;align=center;verticalAlign=middle;resizable=0;points=[];" parent="aILLjWVmcoHMxmn1RiVL-25" vertex="1" connectable="0">
          <mxGeometry x="-0.2201" y="2" relative="1" as="geometry">
            <mxPoint x="-3" as="offset" />
          </mxGeometry>
        </mxCell>
        <mxCell id="aILLjWVmcoHMxmn1RiVL-24" value="&lt;font face=&quot;Courier New&quot;&gt;用户&lt;/font&gt;" style="rounded=1;whiteSpace=wrap;html=1;" parent="1" vertex="1">
          <mxGeometry x="250" y="182" width="120" height="30" as="geometry" />
        </mxCell>
      </root>
    </mxGraphModel>
  </diagram>
</mxfile>
